<svg width="974" height="523" viewBox="0 0 974 523" fill="none" xmlns="http://www.w3.org/2000/svg">
<path d="M464.525 253H349.659C344.877 253 341 256.877 341 261.659C341 266.442 344.877 270.318 349.659 270.318H458.54C478.764 270.318 498 279.065 511.294 294.307L560.143 350.313C571.606 363.457 588.195 371 605.635 371H657.194C662.057 371 666 367.057 666 362.194C666 357.331 662.057 353.388 657.194 353.388H609.505C593.163 353.388 577.622 346.312 566.892 333.986L517.324 277.04C504.029 261.768 484.773 253 464.525 253Z" fill="#060000"/>
<g opacity="0.1">
<path opacity="0.1" d="M521.959 509.665V521.959H509.664" stroke="black" stroke-miterlimit="10"/>
<path opacity="0.1" d="M486.018 521.959H25.0972" stroke="black" stroke-miterlimit="10" stroke-dasharray="5.77 5.77"/>
<path opacity="0.1" d="M13.2945 521.959H1V509.665" stroke="black" stroke-miterlimit="10"/>
<path opacity="0.1" d="M1 486.018V25.0973" stroke="black" stroke-miterlimit="10" stroke-dasharray="5.77 5.77"/>
<path opacity="0.1" d="M1 13.2945V1H13.2945" stroke="black" stroke-miterlimit="10"/>
<path opacity="0.1" d="M36.941 1H497.862" stroke="black" stroke-miterlimit="10" stroke-dasharray="5.77 5.77"/>
<path opacity="0.1" d="M509.664 1H521.959V13.2945" stroke="black" stroke-miterlimit="10"/>
<path opacity="0.1" d="M521.959 36.9V497.862" stroke="black" stroke-miterlimit="10" stroke-dasharray="5.77 5.77"/>
</g>
<path d="M241.521 261.602C241.521 265.608 242.709 269.524 244.936 272.854C247.162 276.185 250.327 278.779 254.028 280.31C257.73 281.841 261.802 282.24 265.731 281.456C269.659 280.671 273.266 278.739 276.096 275.903C278.926 273.068 280.851 269.457 281.627 265.527C282.403 261.597 281.997 257.525 280.458 253.827C278.92 250.128 276.319 246.969 272.984 244.75C269.649 242.53 265.731 241.35 261.725 241.358C256.363 241.369 251.224 243.506 247.436 247.302C243.648 251.097 241.521 256.24 241.521 261.602Z" fill="black"/>
<path d="M261.725 324.878C257.721 324.878 253.807 326.065 250.478 328.289C247.148 330.514 244.554 333.676 243.021 337.375C241.489 341.075 241.088 345.145 241.869 349.073C242.65 352.999 244.579 356.607 247.41 359.438C250.241 362.269 253.848 364.198 257.776 364.979C261.703 365.76 265.773 365.359 269.473 363.827C273.172 362.294 276.334 359.699 278.558 356.37C280.783 353.041 281.97 349.127 281.97 345.123C281.97 339.753 279.837 334.604 276.04 330.807C272.244 327.011 267.094 324.878 261.725 324.878Z" fill="black"/>
<path d="M107.933 249C105.375 249 102.874 249.758 100.748 251.18C98.6209 252.601 96.9633 254.62 95.9844 256.984C95.0056 259.347 94.7495 261.947 95.2485 264.456C95.7475 266.964 96.9792 269.269 98.788 271.077C100.596 272.886 102.901 274.118 105.409 274.617C107.918 275.116 110.519 274.86 112.882 273.881C115.245 272.902 117.265 271.244 118.686 269.118C120.107 266.991 120.865 264.491 120.865 261.933C120.865 258.503 119.503 255.213 117.077 252.788C114.652 250.363 111.362 249 107.933 249Z" fill="black"/>
<path d="M262.175 193.881C268.39 193.893 274.469 192.083 279.642 188.68C284.816 185.277 288.851 180.434 291.238 174.764C293.625 169.094 294.256 162.851 293.051 156.826C291.847 150.801 288.86 145.264 284.47 140.917C280.08 136.571 274.484 133.608 268.39 132.406C262.295 131.202 255.978 131.814 250.235 134.161C244.492 136.508 239.583 140.486 236.129 145.592C232.675 150.697 230.831 156.701 230.831 162.843C230.831 171.063 234.132 178.948 240.008 184.768C245.885 190.587 253.857 193.864 262.175 193.881Z" fill="#BB5A5A"/>
<path d="M209.4 259.653C209.4 252.344 207.233 245.2 203.173 239.123C199.113 233.048 193.342 228.311 186.59 225.515C179.838 222.718 172.409 221.986 165.241 223.412C158.073 224.838 151.489 228.357 146.321 233.525C141.154 238.692 137.635 245.276 136.209 252.444C134.784 259.611 135.515 267.041 138.312 273.792C141.109 280.544 145.845 286.315 151.921 290.375C157.997 294.435 165.142 296.603 172.449 296.603C182.25 296.603 191.648 292.71 198.578 285.78C205.507 278.85 209.4 269.452 209.4 259.653Z" fill="black"/>
<path d="M307.789 289.183C300.547 281.897 296.482 272.04 296.482 261.766C296.482 251.493 300.547 241.636 307.789 234.35C310.612 231.515 312.532 227.908 313.307 223.983C314.082 220.058 313.676 215.991 312.141 212.297C310.607 208.602 308.012 205.445 304.684 203.224C301.357 201.003 297.446 199.818 293.445 199.818C289.445 199.818 285.534 201.003 282.206 203.224C278.879 205.445 276.284 208.602 274.749 212.297C273.215 215.991 272.809 220.058 273.583 223.983C274.358 227.908 276.278 231.515 279.102 234.35C282.74 237.954 285.628 242.244 287.598 246.971C289.569 251.698 290.583 256.768 290.583 261.889C290.583 267.01 289.569 272.081 287.598 276.808C285.628 281.535 282.74 285.824 279.102 289.429C276.278 292.263 274.358 295.871 273.583 299.796C272.809 303.721 273.215 307.787 274.749 311.482C276.284 315.177 278.879 318.334 282.206 320.555C285.534 322.776 289.445 323.961 293.445 323.961C297.446 323.961 301.357 322.776 304.684 320.555C308.012 318.334 310.607 315.177 312.141 311.482C313.676 307.787 314.082 303.721 313.307 299.796C312.532 295.871 310.612 292.263 307.789 289.429V289.183Z" fill="black"/>
<path d="M249.513 300.986C249.491 295.67 247.404 290.571 243.693 286.765C236.451 279.479 232.386 269.622 232.386 259.348C232.386 249.075 236.451 239.219 243.693 231.932C246.517 229.097 248.437 225.49 249.212 221.565C249.987 217.64 249.581 213.574 248.046 209.879C246.512 206.184 243.917 203.027 240.589 200.806C237.262 198.585 233.351 197.4 229.35 197.4C225.349 197.4 221.438 198.585 218.111 200.806C214.783 203.027 212.188 206.184 210.654 209.879C209.119 213.574 208.714 217.64 209.488 221.565C210.263 225.49 212.183 229.097 215.006 231.932C218.638 235.536 221.521 239.823 223.488 244.546C225.455 249.269 226.468 254.335 226.468 259.451C226.468 264.567 225.455 269.633 223.488 274.356C221.521 279.079 218.638 283.367 215.006 286.97C212.676 289.337 210.963 292.242 210.02 295.427C209.077 298.612 208.932 301.98 209.598 305.235C210.265 308.49 211.722 311.53 213.841 314.088C215.96 316.647 218.676 318.644 221.749 319.905C224.823 321.166 228.159 321.651 231.465 321.317C234.77 320.984 237.942 319.842 240.702 317.992C243.462 316.143 245.724 313.643 247.289 310.713C248.854 307.783 249.674 304.513 249.677 301.191L249.513 300.986Z" fill="black"/>
<path d="M743.267 293.592C743.206 296.25 745.31 298.455 747.969 298.518L749.379 298.551C751.261 298.595 752.822 297.105 752.866 295.223V295.223C752.926 292.6 755.802 291.026 758.043 292.39L783.029 307.596C786.317 309.597 786.206 314.406 782.83 316.254L757.179 330.288C754.875 331.548 752.071 329.841 752.133 327.216V327.216C752.178 325.331 750.685 323.768 748.8 323.726L747.39 323.694C744.73 323.635 742.526 325.742 742.464 328.401L742.176 340.926C742.088 344.774 746.198 347.275 749.574 345.427L802.099 316.696C805.475 314.849 805.586 310.039 802.299 308.038L751.153 276.911C747.865 274.91 743.644 277.219 743.555 281.067L743.267 293.592Z" fill="black"/>
<path d="M352.06 338C351.229 338 350.497 337.683 349.862 337.048C349.276 336.413 348.983 335.632 348.983 334.704C348.983 333.435 349.618 332.238 350.888 331.115L401.059 286.804H353.671C352.938 286.804 352.255 286.804 351.62 286.804C350.985 286.804 350.424 286.73 349.936 286.584C349.447 286.438 349.057 286.218 348.764 285.925C348.471 285.583 348.324 285.119 348.324 284.533C348.324 283.801 348.446 283.264 348.69 282.922C348.983 282.531 349.374 282.263 349.862 282.116C350.351 281.97 350.888 281.896 351.474 281.896C352.108 281.896 352.792 281.896 353.524 281.896H405.087C406.259 281.896 407.162 282.214 407.797 282.849C408.432 283.435 408.749 284.167 408.749 285.046C408.749 286.267 408.163 287.39 406.991 288.415L356.454 333.093H404.354C405.087 333.093 405.771 333.093 406.405 333.093C407.04 333.093 407.602 333.166 408.09 333.312C408.578 333.459 408.969 333.728 409.262 334.118C409.555 334.46 409.701 334.997 409.701 335.729C409.701 336.315 409.53 336.779 409.188 337.121C408.896 337.414 408.505 337.634 408.017 337.78C407.528 337.927 406.967 338 406.332 338C405.746 338 405.136 338 404.501 338H352.06ZM432.26 321.594C432.26 323.938 432.846 325.915 434.018 327.526C435.238 329.138 436.923 330.456 439.071 331.481C441.22 332.507 443.759 333.264 446.688 333.752C449.667 334.191 452.914 334.411 456.43 334.411C460.727 334.411 464.535 334.118 467.855 333.532C471.176 332.897 474.081 332.116 476.571 331.188C479.062 330.261 481.161 329.26 482.87 328.186C484.579 327.062 485.995 325.988 487.118 324.963V310.241C482.235 309.558 477.182 308.923 471.957 308.337C466.732 307.702 461.459 307.385 456.137 307.385C452.377 307.385 449.008 307.604 446.029 308.044C443.1 308.483 440.609 309.24 438.559 310.314C436.508 311.389 434.945 312.854 433.871 314.709C432.797 316.516 432.26 318.811 432.26 321.594ZM463.388 284.753C458.7 284.753 454.696 284.875 451.376 285.119C448.056 285.363 445.199 285.681 442.807 286.071C440.463 286.462 438.485 286.877 436.874 287.316C435.263 287.756 433.847 288.195 432.626 288.635C432.04 288.635 431.503 288.342 431.015 287.756C430.526 287.17 430.282 286.535 430.282 285.852C430.282 285.217 430.575 284.753 431.161 284.46C431.552 284.265 432.455 283.947 433.871 283.508C435.336 283.068 437.362 282.629 439.95 282.189C442.587 281.701 445.834 281.286 449.691 280.944C453.598 280.603 458.188 280.432 463.461 280.432C465.951 280.432 468.417 280.603 470.858 280.944C473.3 281.237 475.595 281.799 477.743 282.629C479.94 283.459 481.967 284.606 483.822 286.071C485.727 287.536 487.338 289.44 488.656 291.784C490.023 294.079 491.098 296.887 491.879 300.207C492.66 303.479 493.051 307.336 493.051 311.779V332.873C493.051 333.459 493.026 334.045 492.978 334.631C492.929 335.217 492.782 335.778 492.538 336.315C492.343 336.804 492.05 337.219 491.659 337.561C491.269 337.854 490.731 338 490.048 338C488.925 338 488.144 337.487 487.704 336.462C487.313 335.437 487.118 334.143 487.118 332.58V327.526C486.142 328.747 484.872 330.017 483.31 331.335C481.747 332.653 479.77 333.874 477.377 334.997C474.984 336.071 472.128 336.975 468.808 337.707C465.487 338.391 461.557 338.732 457.016 338.732C452.768 338.732 448.764 338.415 445.004 337.78C441.293 337.146 438.046 336.145 435.263 334.777C432.528 333.41 430.355 331.652 428.744 329.504C427.182 327.307 426.4 324.67 426.4 321.594C426.4 318.029 427.133 315.075 428.598 312.731C430.111 310.339 432.187 308.435 434.823 307.019C437.46 305.554 440.536 304.528 444.052 303.942C447.616 303.356 451.449 303.063 455.551 303.063C458.627 303.063 461.703 303.186 464.779 303.43C467.904 303.625 470.858 303.942 473.642 304.382C476.425 304.772 478.964 305.285 481.259 305.92C483.603 306.506 485.556 307.214 487.118 308.044C487.118 303.063 486.459 299.06 485.141 296.032C483.822 293.005 482.064 290.661 479.867 289.001C477.67 287.292 475.131 286.169 472.25 285.632C469.418 285.046 466.464 284.753 463.388 284.753ZM558.676 282.189C559.213 282.336 559.604 282.629 559.848 283.068C560.092 283.459 560.214 283.898 560.214 284.387C560.214 285.021 559.994 285.607 559.555 286.145C559.164 286.682 558.554 286.95 557.724 286.95C557.479 286.95 557.333 286.95 557.284 286.95C557.235 286.901 557.089 286.853 556.845 286.804C554.94 286.267 553.109 285.852 551.352 285.559C549.643 285.266 547.763 285.119 545.712 285.119C542.831 285.119 540.072 285.412 537.436 285.998C534.848 286.535 532.479 287.39 530.331 288.562C528.231 289.685 526.4 291.149 524.838 292.956C523.275 294.714 522.104 296.789 521.322 299.182V332.873C521.322 334.143 521.151 335.314 520.81 336.389C520.468 337.463 519.687 338 518.466 338C517.782 338 517.221 337.854 516.781 337.561C516.391 337.268 516.098 336.877 515.902 336.389C515.707 335.9 515.585 335.363 515.536 334.777C515.487 334.143 515.463 333.508 515.463 332.873V285.998C515.463 284.875 515.658 283.923 516.049 283.142C516.439 282.312 517.343 281.896 518.759 281.896C519.833 281.896 520.517 282.287 520.81 283.068C521.151 283.85 521.322 284.826 521.322 285.998V294.494C522.104 291.516 523.446 289.099 525.351 287.243C527.304 285.388 529.452 283.972 531.796 282.995C534.188 281.97 536.63 281.286 539.12 280.944C541.61 280.603 543.808 280.432 545.712 280.432C547.567 280.432 549.154 280.505 550.473 280.651C551.84 280.749 553.012 280.896 553.988 281.091C554.965 281.237 555.819 281.408 556.552 281.604C557.284 281.799 557.992 281.994 558.676 282.189ZM578.012 321.594C578.012 323.938 578.598 325.915 579.77 327.526C580.99 329.138 582.675 330.456 584.823 331.481C586.972 332.507 589.511 333.264 592.44 333.752C595.419 334.191 598.666 334.411 602.182 334.411C606.479 334.411 610.287 334.118 613.607 333.532C616.928 332.897 619.833 332.116 622.323 331.188C624.813 330.261 626.913 329.26 628.622 328.186C630.331 327.062 631.747 325.988 632.87 324.963V310.241C627.987 309.558 622.934 308.923 617.709 308.337C612.484 307.702 607.211 307.385 601.889 307.385C598.129 307.385 594.76 307.604 591.781 308.044C588.852 308.483 586.361 309.24 584.311 310.314C582.26 311.389 580.697 312.854 579.623 314.709C578.549 316.516 578.012 318.811 578.012 321.594ZM609.14 284.753C604.452 284.753 600.448 284.875 597.128 285.119C593.808 285.363 590.951 285.681 588.559 286.071C586.215 286.462 584.237 286.877 582.626 287.316C581.015 287.756 579.599 288.195 578.378 288.635C577.792 288.635 577.255 288.342 576.767 287.756C576.278 287.17 576.034 286.535 576.034 285.852C576.034 285.217 576.327 284.753 576.913 284.46C577.304 284.265 578.207 283.947 579.623 283.508C581.088 283.068 583.114 282.629 585.702 282.189C588.339 281.701 591.586 281.286 595.443 280.944C599.35 280.603 603.939 280.432 609.213 280.432C611.703 280.432 614.169 280.603 616.61 280.944C619.052 281.237 621.347 281.799 623.495 282.629C625.692 283.459 627.719 284.606 629.574 286.071C631.479 287.536 633.09 289.44 634.408 291.784C635.775 294.079 636.85 296.887 637.631 300.207C638.412 303.479 638.803 307.336 638.803 311.779V332.873C638.803 333.459 638.778 334.045 638.729 334.631C638.681 335.217 638.534 335.778 638.29 336.315C638.095 336.804 637.802 337.219 637.411 337.561C637.021 337.854 636.483 338 635.8 338C634.677 338 633.896 337.487 633.456 336.462C633.065 335.437 632.87 334.143 632.87 332.58V327.526C631.894 328.747 630.624 330.017 629.062 331.335C627.499 332.653 625.521 333.874 623.129 334.997C620.736 336.071 617.88 336.975 614.56 337.707C611.239 338.391 607.309 338.732 602.768 338.732C598.52 338.732 594.516 338.415 590.756 337.78C587.045 337.146 583.798 336.145 581.015 334.777C578.28 333.41 576.107 331.652 574.496 329.504C572.934 327.307 572.152 324.67 572.152 321.594C572.152 318.029 572.885 315.075 574.35 312.731C575.863 310.339 577.938 308.435 580.575 307.019C583.212 305.554 586.288 304.528 589.804 303.942C593.368 303.356 597.201 303.063 601.303 303.063C604.379 303.063 607.455 303.186 610.531 303.43C613.656 303.625 616.61 303.942 619.394 304.382C622.177 304.772 624.716 305.285 627.011 305.92C629.354 306.506 631.308 307.214 632.87 308.044C632.87 303.063 632.211 299.06 630.893 296.032C629.574 293.005 627.816 290.661 625.619 289.001C623.422 287.292 620.883 286.169 618.002 285.632C615.17 285.046 612.216 284.753 609.14 284.753ZM695.053 338.732C688.314 338.732 682.626 338.073 677.987 336.755C673.349 335.388 669.589 333.459 666.708 330.969C663.876 328.479 661.825 325.451 660.556 321.887C659.286 318.322 658.651 314.294 658.651 309.802C658.651 304.626 659.359 300.207 660.775 296.545C662.24 292.834 664.462 289.782 667.44 287.39C670.468 284.997 674.252 283.239 678.793 282.116C683.383 280.993 688.803 280.432 695.053 280.432C701.303 280.432 706.698 280.993 711.239 282.116C715.829 283.239 719.613 284.997 722.592 287.39C725.619 289.782 727.841 292.834 729.257 296.545C730.722 300.207 731.454 304.626 731.454 309.802C731.454 314.294 730.819 318.322 729.55 321.887C728.28 325.451 726.205 328.479 723.324 330.969C720.492 333.459 716.757 335.388 712.118 336.755C707.479 338.073 701.791 338.732 695.053 338.732ZM695.053 334.411C699.496 334.411 703.329 334.094 706.552 333.459C709.774 332.775 712.509 331.848 714.755 330.676C717.05 329.504 718.881 328.137 720.248 326.574C721.664 325.012 722.763 323.327 723.544 321.521C724.374 319.665 724.911 317.761 725.155 315.808C725.448 313.806 725.595 311.804 725.595 309.802C725.595 305.261 725.009 301.403 723.837 298.229C722.665 295.056 720.834 292.468 718.344 290.466C715.854 288.464 712.68 287.023 708.822 286.145C704.965 285.217 700.375 284.753 695.053 284.753C689.682 284.753 685.067 285.217 681.21 286.145C677.401 287.023 674.252 288.464 671.762 290.466C669.271 292.468 667.44 295.056 666.269 298.229C665.097 301.403 664.511 305.261 664.511 309.802C664.511 311.804 664.633 313.806 664.877 315.808C665.17 317.761 665.707 319.665 666.488 321.521C667.318 323.327 668.417 325.012 669.784 326.574C671.2 328.137 673.031 329.504 675.277 330.676C677.572 331.848 680.331 332.775 683.554 333.459C686.776 334.094 690.609 334.411 695.053 334.411Z" fill="black" fill-opacity="0.12"/>
<path d="M344.65 234.45V204.5C344.65 202.867 345.083 202.05 345.95 202.05H371.65C372.083 202.05 372.417 202.233 372.65 202.6C372.917 202.967 373.05 203.4 373.05 203.9C373.05 205.133 372.583 205.75 371.65 205.75H348.35V215.55H367.15C367.583 215.55 367.917 215.733 368.15 216.1C368.417 216.467 368.55 216.9 368.55 217.4C368.55 218.633 368.083 219.25 367.15 219.25H348.35V233.3H371.65C372.083 233.3 372.417 233.483 372.65 233.85C372.917 234.217 373.05 234.65 373.05 235.15C373.05 236.383 372.583 237 371.65 237H345.95C345.383 237 345.017 236.8 344.85 236.4C344.717 236 344.65 235.35 344.65 234.45ZM378.244 235.6V203.35C378.244 202.45 378.744 202 379.744 202C380.477 202 381.194 202.317 381.894 202.95L403.144 221.65V203.35C403.144 202.45 403.777 202 405.044 202C405.544 202 405.96 202.117 406.294 202.35C406.66 202.583 406.844 202.917 406.844 203.35V235.6C406.844 236.033 406.66 236.383 406.294 236.65C405.927 236.883 405.494 237 404.994 237C403.76 237 403.144 236.533 403.144 235.6V226.5L381.944 207.85V235.6C381.944 236.033 381.76 236.383 381.394 236.65C381.027 236.883 380.594 237 380.094 237C378.86 237 378.244 236.533 378.244 235.6ZM414.132 235.6V203.35C414.132 202.45 414.766 202 416.032 202C416.532 202 416.949 202.117 417.282 202.35C417.649 202.583 417.832 202.917 417.832 203.35V235.6C417.832 236.033 417.649 236.383 417.282 236.65C416.916 236.883 416.482 237 415.982 237C414.749 237 414.132 236.533 414.132 235.6Z" fill="black" fill-opacity="0.8"/>
</svg>
