<svg width="500" height="500" viewBox="0 0 523 523" fill="none" xmlns="http://www.w3.org/2000/svg">
<g opacity="0.1">
<path opacity="0.1" d="M521.959 509.665V521.959H509.665" stroke="black" stroke-miterlimit="10"/>
<path opacity="0.1" d="M486.018 521.959H25.0972" stroke="black" stroke-miterlimit="10" stroke-dasharray="5.77 5.77"/>
<path opacity="0.1" d="M13.2945 521.959H1V509.665" stroke="black" stroke-miterlimit="10"/>
<path opacity="0.1" d="M1 486.018V25.0973" stroke="black" stroke-miterlimit="10" stroke-dasharray="5.77 5.77"/>
<path opacity="0.1" d="M1 13.2945V1H13.2945" stroke="black" stroke-miterlimit="10"/>
<path opacity="0.1" d="M36.9409 1H497.862" stroke="black" stroke-miterlimit="10" stroke-dasharray="5.77 5.77"/>
<path opacity="0.1" d="M509.665 1H521.959V13.2945" stroke="black" stroke-miterlimit="10"/>
<path opacity="0.1" d="M521.959 36.9V497.862" stroke="black" stroke-miterlimit="10" stroke-dasharray="5.77 5.77"/>
</g>
<path d="M241.521 261.602C241.521 265.608 242.709 269.524 244.936 272.854C247.162 276.185 250.327 278.779 254.028 280.31C257.73 281.841 261.802 282.24 265.731 281.456C269.659 280.671 273.266 278.739 276.096 275.903C278.926 273.068 280.851 269.457 281.627 265.527C282.403 261.597 281.997 257.525 280.458 253.827C278.92 250.128 276.319 246.969 272.984 244.75C269.649 242.53 265.731 241.35 261.725 241.358C256.363 241.369 251.224 243.506 247.436 247.302C243.648 251.097 241.521 256.24 241.521 261.602Z" fill="black"/>
<path d="M261.725 324.878C257.721 324.878 253.807 326.065 250.477 328.289C247.148 330.514 244.553 333.676 243.021 337.375C241.489 341.075 241.088 345.145 241.869 349.073C242.65 352.999 244.578 356.607 247.409 359.438C250.241 362.269 253.848 364.198 257.775 364.979C261.703 365.76 265.773 365.359 269.472 363.827C273.172 362.294 276.334 359.699 278.558 356.37C280.783 353.041 281.97 349.127 281.97 345.123C281.97 339.753 279.837 334.604 276.04 330.807C272.244 327.011 267.094 324.878 261.725 324.878Z" fill="black"/>
<path d="M107.933 249C105.375 249 102.874 249.758 100.748 251.18C98.6209 252.601 96.9633 254.62 95.9844 256.984C95.0056 259.347 94.7495 261.947 95.2485 264.456C95.7475 266.964 96.9792 269.269 98.788 271.077C100.596 272.886 102.901 274.118 105.409 274.617C107.918 275.116 110.519 274.86 112.882 273.881C115.245 272.902 117.265 271.244 118.686 269.118C120.107 266.991 120.865 264.491 120.865 261.933C120.865 258.503 119.503 255.213 117.077 252.788C114.652 250.363 111.362 249 107.933 249Z" fill="black"/>
<path d="M262.175 193.881C268.39 193.893 274.469 192.083 279.642 188.68C284.815 185.277 288.851 180.434 291.237 174.764C293.625 169.094 294.256 162.851 293.051 156.826C291.847 150.801 288.86 145.264 284.47 140.917C280.08 136.571 274.484 133.608 268.39 132.406C262.295 131.202 255.978 131.814 250.235 134.161C244.492 136.508 239.583 140.486 236.129 145.592C232.675 150.697 230.831 156.701 230.831 162.843C230.831 171.063 234.131 178.948 240.008 184.768C245.885 190.587 253.857 193.864 262.175 193.881Z" fill="#BB5A5A"/>
<path d="M209.4 259.653C209.4 252.344 207.233 245.2 203.173 239.123C199.113 233.048 193.342 228.311 186.59 225.515C179.838 222.718 172.409 221.986 165.241 223.412C158.073 224.838 151.489 228.357 146.322 233.525C141.154 238.692 137.635 245.276 136.21 252.444C134.784 259.611 135.515 267.041 138.312 273.792C141.109 280.544 145.845 286.315 151.921 290.375C157.998 294.435 165.142 296.603 172.45 296.603C182.25 296.603 191.648 292.71 198.578 285.78C205.508 278.85 209.4 269.452 209.4 259.653Z" fill="black"/>
<path d="M307.789 289.183C300.546 281.897 296.481 272.04 296.481 261.766C296.481 251.493 300.546 241.636 307.789 234.35C310.612 231.515 312.532 227.908 313.307 223.983C314.082 220.058 313.676 215.991 312.141 212.297C310.607 208.602 308.012 205.445 304.684 203.224C301.357 201.003 297.446 199.818 293.445 199.818C289.444 199.818 285.534 201.003 282.206 203.224C278.879 205.445 276.284 208.602 274.749 212.297C273.214 215.991 272.809 220.058 273.583 223.983C274.358 227.908 276.278 231.515 279.101 234.35C282.739 237.954 285.627 242.244 287.598 246.971C289.569 251.698 290.583 256.768 290.583 261.889C290.583 267.01 289.569 272.081 287.598 276.808C285.627 281.535 282.739 285.824 279.101 289.429C276.278 292.263 274.358 295.871 273.583 299.796C272.809 303.721 273.214 307.787 274.749 311.482C276.284 315.177 278.879 318.334 282.206 320.555C285.534 322.776 289.444 323.961 293.445 323.961C297.446 323.961 301.357 322.776 304.684 320.555C308.012 318.334 310.607 315.177 312.141 311.482C313.676 307.787 314.082 303.721 313.307 299.796C312.532 295.871 310.612 292.263 307.789 289.429V289.183Z" fill="black"/>
<path d="M249.513 300.986C249.491 295.67 247.404 290.571 243.693 286.765C236.451 279.479 232.386 269.622 232.386 259.348C232.386 249.075 236.451 239.219 243.693 231.932C246.517 229.097 248.437 225.49 249.212 221.565C249.987 217.64 249.581 213.574 248.046 209.879C246.512 206.184 243.917 203.027 240.589 200.806C237.262 198.585 233.35 197.4 229.35 197.4C225.349 197.4 221.438 198.585 218.111 200.806C214.783 203.027 212.188 206.184 210.654 209.879C209.119 213.574 208.713 217.64 209.488 221.565C210.263 225.49 212.183 229.097 215.006 231.932C218.638 235.536 221.521 239.823 223.488 244.546C225.455 249.269 226.468 254.335 226.468 259.451C226.468 264.567 225.455 269.633 223.488 274.356C221.521 279.079 218.638 283.367 215.006 286.97C212.676 289.337 210.963 292.242 210.02 295.427C209.077 298.612 208.932 301.98 209.598 305.235C210.265 308.49 211.722 311.53 213.841 314.088C215.96 316.647 218.676 318.644 221.749 319.905C224.823 321.166 228.159 321.651 231.464 321.317C234.77 320.984 237.942 319.842 240.702 317.992C243.461 316.143 245.724 313.643 247.289 310.713C248.854 307.783 249.674 304.513 249.677 301.191L249.513 300.986Z" fill="black"/>
<path d="M325.84 287.92V240C325.84 237.387 326.533 236.08 327.92 236.08H369.04C369.733 236.08 370.267 236.373 370.64 236.96C371.067 237.547 371.28 238.24 371.28 239.04C371.28 241.013 370.533 242 369.04 242H331.76V257.68H361.84C362.533 257.68 363.067 257.973 363.44 258.56C363.867 259.147 364.08 259.84 364.08 260.64C364.08 262.613 363.333 263.6 361.84 263.6H331.76V286.08H369.04C369.733 286.08 370.267 286.373 370.64 286.96C371.067 287.547 371.28 288.24 371.28 289.04C371.28 291.013 370.533 292 369.04 292H327.92C327.013 292 326.427 291.68 326.16 291.04C325.947 290.4 325.84 289.36 325.84 287.92ZM379.59 289.76V238.16C379.59 236.72 380.39 236 381.99 236C383.163 236 384.31 236.507 385.43 237.52L419.43 267.44V238.16C419.43 236.72 420.443 236 422.47 236C423.27 236 423.937 236.187 424.47 236.56C425.057 236.933 425.35 237.467 425.35 238.16V289.76C425.35 290.453 425.057 291.013 424.47 291.44C423.883 291.813 423.19 292 422.39 292C420.417 292 419.43 291.253 419.43 289.76V275.2L385.51 245.36V289.76C385.51 290.453 385.217 291.013 384.63 291.44C384.043 291.813 383.35 292 382.55 292C380.577 292 379.59 291.253 379.59 289.76ZM437.012 289.76V238.16C437.012 236.72 438.025 236 440.052 236C440.852 236 441.519 236.187 442.052 236.56C442.639 236.933 442.932 237.467 442.932 238.16V289.76C442.932 290.453 442.639 291.013 442.052 291.44C441.465 291.813 440.772 292 439.972 292C437.999 292 437.012 291.253 437.012 289.76Z" fill="black" fill-opacity="0.8"/>
</svg>
